<svg version="1.0" xmlns="http://www.w3.org/2000/svg" width="80" height="80" viewBox="0 0 512.000000 512.000000" preserveAspectRatio="xMidYMid meet"
 style="fill: #75846e; color: #75846e">

<g transform="translate(0.000000,512.000000) scale(0.100000,-0.100000)" stroke="none">
<path d="M1015 4356 c-37 -16 -246 -229 -339 -346 -447 -556 -700 -1312 -672
-2007 8 -195 27 -315 71 -450 63 -189 157 -344 289 -476 440 -439 1155 -428
1591 25 50 51 107 119 128 151 228 345 256 768 78 1132 -166 337 -472 564
-843 622 l-108 17 0 72 c0 192 85 440 229 670 100 158 110 129 -140 379 -118
117 -223 216 -234 219 -11 3 -33 -1 -50 -8z m301 -481 c-79 -122 -167 -310
-209 -445 -70 -231 -78 -490 -16 -546 14 -12 46 -19 117 -25 249 -19 441 -106
621 -282 123 -121 220 -291 262 -463 34 -134 31 -333 -5 -469 -78 -295 -277
-526 -562 -652 -187 -83 -418 -100 -629 -47 -93 23 -271 116 -353 185 -153
127 -284 338 -337 542 -62 243 -56 659 14 999 67 323 182 615 358 906 119 197
191 294 366 490 l101 113 143 -143 c132 -132 142 -144 129 -163z"></path>
<path d="M3855 4356 c-77 -33 -379 -381 -510 -586 -197 -307 -346 -657 -425
-995 -86 -370 -101 -840 -35 -1111 105 -433 401 -756 795 -868 361 -102 772
-8 1050 240 296 264 436 645 375 1021 -28 176 -97 346 -192 483 -70 99 -226
247 -327 309 -142 88 -317 149 -475 167 l-64 7 6 106 c12 207 86 409 244 662
30 49 53 98 53 113 0 22 -28 58 -127 162 -148 156 -290 289 -318 297 -11 3
-33 0 -50 -7z m178 -324 l137 -137 -36 -60 c-183 -302 -280 -668 -233 -884 15
-72 30 -81 150 -92 247 -21 452 -114 618 -280 225 -225 329 -547 276 -852 -69
-396 -369 -709 -761 -792 -104 -23 -293 -23 -396 -1 -396 85 -686 407 -764
846 -21 117 -24 485 -5 635 76 626 354 1219 779 1666 46 49 87 89 91 89 3 0
68 -62 144 -138z"></path>
</g>
</svg>