<svg version="1.0" xmlns="http://www.w3.org/2000/svg" width="80" height="80" viewBox="0 0 512.000000 512.000000" preserveAspectRatio="xMidYMid meet" 

 style="fill: #75846e; color: #75846e"
>

<g transform="translate(0.000000,512.000000) scale(0.100000,-0.100000)" stroke="none">
<path d="M2370 4953 c-414 -31 -762 -172 -1010 -409 l-77 -74 -49 111 c-48
111 -70 139 -109 139 -11 0 -227 -74 -480 -165 -318 -114 -465 -171 -477 -186
-10 -12 -18 -33 -18 -48 0 -14 53 -220 118 -457 l118 -431 -47 -599 c-45 -569
-46 -604 -33 -692 26 -179 67 -271 241 -550 127 -203 161 -236 252 -248 42 -5
50 -11 86 -61 67 -92 132 -136 231 -154 82 -15 146 2 256 68 l92 56 34 -39
c19 -21 49 -57 68 -80 l34 -41 0 -467 0 -466 80 0 80 0 0 390 0 390 63 -51
c128 -104 279 -178 455 -221 104 -26 348 -31 447 -10 197 43 363 122 503 239
l52 45 0 -391 0 -391 80 0 80 0 0 468 0 467 70 80 c39 44 74 81 80 83 5 2 33
-14 62 -36 84 -63 115 -75 204 -80 72 -4 88 -1 142 23 60 27 125 85 166 148
11 16 27 27 41 27 41 0 109 30 143 63 37 35 225 331 279 436 39 77 77 197 94
296 9 52 10 225 5 681 l-6 612 120 440 c66 242 120 449 120 460 0 11 -8 29
-17 40 -11 13 -179 85 -423 183 -223 89 -413 164 -422 166 -42 12 -67 -8 -162
-136 l-97 -129 -87 87 c-237 236 -562 373 -977 411 -103 9 -302 11 -405 3z
m550 -182 c274 -48 466 -131 658 -284 34 -28 62 -54 62 -58 0 -5 -19 -17 -42
-27 -675 -304 -1235 -552 -1640 -725 -289 -124 -310 -134 -407 -200 -213 -143
-386 -376 -481 -645 -46 -129 -48 -124 -56 138 -28 850 241 1431 777 1679 151
69 346 121 537 141 141 14 459 4 592 -19z m-1796 -336 l47 -105 -35 -59 c-88
-144 -160 -318 -206 -496 -108 -417 -105 -990 6 -1520 30 -140 36 -153 75
-167 16 -5 29 -16 29 -24 0 -29 95 -263 155 -384 35 -69 88 -164 117 -211 l55
-86 -59 -38 c-127 -82 -196 -80 -272 7 l-44 50 31 44 c25 36 32 57 35 109 4
64 3 67 -81 243 -47 97 -95 209 -106 247 -11 39 -35 171 -52 295 -17 124 -33
227 -34 228 -4 4 -147 -17 -153 -23 -2 -2 13 -115 33 -251 41 -286 56 -337
161 -553 41 -84 74 -164 74 -177 0 -27 -36 -64 -63 -64 -38 0 -57 23 -161 188
-170 272 -218 395 -217 562 0 47 20 335 45 641 l44 556 -112 411 -113 411 71
26 c39 14 208 75 376 135 168 60 306 109 306 110 1 0 23 -47 48 -105z m3321
-27 c182 -72 332 -133 334 -135 2 -1 -46 -187 -108 -413 l-112 -410 7 -617 c8
-674 7 -689 -47 -839 -43 -117 -269 -481 -305 -490 -35 -9 -72 10 -85 43 -9
23 0 48 75 202 47 97 95 211 106 253 18 68 93 538 87 545 -6 5 -149 25 -153
21 -2 -3 -18 -101 -34 -219 -17 -118 -40 -248 -51 -289 -11 -41 -58 -155 -106
-253 -78 -160 -86 -183 -86 -235 0 -54 16 -99 55 -153 15 -21 -29 -81 -77
-103 -60 -29 -115 -21 -184 25 -33 22 -63 45 -66 50 -4 5 22 55 56 112 83 136
179 335 225 466 26 72 46 114 65 131 31 28 44 67 84 255 159 739 106 1447
-140 1879 -25 44 -45 81 -45 83 0 6 165 223 170 223 3 0 154 -59 335 -132z
m-647 -171 c129 -204 209 -454 242 -752 13 -123 14 -475 0 -610 -19 -194 -23
-226 -31 -231 -5 -3 -9 2 -9 12 0 9 -21 65 -46 125 -143 339 -405 615 -794
834 -101 57 -263 130 -377 171 -46 16 -83 31 -83 34 0 3 152 73 337 155 186
83 423 189 528 237 104 48 191 87 192 87 0 1 19 -27 41 -62z m-1250 -542 c201
-51 499 -181 667 -292 263 -174 436 -364 556 -608 66 -135 103 -253 126 -402
l16 -102 -48 -147 c-133 -415 -313 -713 -611 -1006 -129 -127 -197 -178 -319
-238 -140 -69 -247 -93 -410 -94 -171 0 -288 26 -430 97 -100 50 -173 104
-293 221 -312 302 -491 601 -630 1051 -47 153 -49 163 -41 230 55 451 256 795
574 981 75 43 748 333 765 329 8 -2 43 -11 78 -20z"></path>
<path d="M1437 2482 c-26 -26 -47 -53 -47 -58 0 -16 111 -91 183 -124 73 -33
193 -60 267 -60 74 0 194 27 267 60 74 34 183 108 183 124 0 14 -91 106 -104
106 -5 0 -23 -11 -40 -24 -17 -13 -55 -35 -84 -50 -165 -83 -337 -72 -501 34
-34 22 -65 40 -69 40 -4 0 -29 -22 -55 -48z"></path>
<path d="M2717 2482 c-26 -26 -47 -53 -47 -58 0 -16 111 -91 183 -124 73 -33
193 -60 267 -60 74 0 194 27 267 60 74 34 183 108 183 124 0 14 -91 106 -104
106 -5 0 -23 -11 -40 -24 -17 -13 -55 -35 -84 -50 -165 -83 -337 -72 -501 34
-34 22 -65 40 -69 40 -4 0 -29 -22 -55 -48z"></path>
<path d="M2079 1441 c-13 -39 -20 -73 -17 -76 9 -10 145 -44 240 -62 128 -23
390 -22 521 1 93 17 225 50 234 60 9 8 -41 146 -52 146 -6 0 -34 -6 -61 -14
-125 -37 -229 -50 -394 -49 -161 1 -221 10 -427 60 -19 4 -24 -3 -44 -66z"></path>
</g>
</svg>