<svg version="1.0" xmlns="http://www.w3.org/2000/svg" width="85" height="85" viewBox="0 0 512.000000 462.000000" preserveAspectRatio="xMidYMid meet" 
 style="fill: #75846e; color: #75846e"
>

<g transform="translate(0.000000,462.000000) scale(0.100000,-0.100000)" stroke="none">
<path d="M1130 4593 c-60 -22 -128 -93 -222 -233 -125 -188 -204 -324 -298
-515 -142 -288 -188 -446 -176 -606 30 -396 317 -697 714 -750 344 -46 698
161 836 489 65 153 79 340 38 492 -62 226 -214 528 -430 855 -123 186 -177
245 -247 268 -60 21 -155 21 -215 0z m169 -167 c79 -41 398 -572 505 -842 95
-241 96 -378 4 -573 -74 -155 -239 -293 -403 -335 -99 -25 -191 -29 -280 -12
-253 49 -462 258 -511 511 -21 107 -12 192 33 327 64 193 194 443 370 710 127
195 159 228 214 228 22 0 52 -6 68 -14z"></path>
<path d="M877 3559 c-30 -23 -70 -137 -81 -230 -9 -70 7 -167 36 -228 48 -101
177 -195 285 -208 46 -5 54 -3 77 20 34 34 35 85 3 115 -13 12 -47 29 -76 38
-64 19 -134 84 -144 133 -13 64 -7 161 13 218 31 89 26 124 -21 148 -38 20
-62 19 -92 -6z"></path>
<path d="M3150 4330 c-51 -9 -71 -23 -122 -82 -175 -205 -359 -523 -481 -833
-95 -241 -158 -460 -222 -773 -53 -263 -124 -426 -242 -565 -29 -34 -78 -91
-108 -126 -144 -170 -209 -401 -171 -618 51 -294 255 -524 546 -615 63 -19 96
-23 210 -23 114 0 147 4 210 23 139 44 225 96 331 202 81 81 102 109 142 190
62 126 81 207 81 350 0 171 -36 284 -148 457 -87 135 -147 282 -182 443 -73
340 66 1071 321 1685 30 72 36 98 33 137 -10 99 -99 165 -198 148z m-25 -300
c-134 -334 -240 -730 -295 -1105 -66 -452 -13 -739 201 -1097 97 -161 122
-236 123 -363 1 -173 -52 -304 -173 -424 -87 -88 -163 -132 -277 -161 -141
-36 -294 -18 -427 52 -92 48 -206 166 -250 259 -47 99 -62 166 -61 274 2 175
49 279 208 455 111 123 197 268 254 430 16 47 48 177 72 290 49 240 109 454
180 647 66 179 209 468 301 608 67 104 181 255 187 250 1 -1 -18 -53 -43 -115z"></path>
<path d="M25 2025 c-32 -31 -32 -75 -1 -112 l24 -28 697 -3 c655 -2 697 -4
690 -20 -4 -9 -18 -60 -32 -112 -34 -126 -43 -360 -19 -495 48 -281 203 -547
419 -720 292 -234 643 -320 1003 -246 476 99 847 484 930 966 24 135 15 369
-19 495 -14 52 -28 103 -32 112 -7 16 35 18 690 20 l697 3 24 28 c31 37 31 81
-1 112 l-24 25 -781 0 -781 0 -25 -26 c-33 -32 -30 -58 21 -178 59 -140 78
-253 72 -426 -5 -162 -28 -262 -93 -399 -183 -390 -606 -630 -1025 -581 -370
43 -669 254 -823 581 -67 141 -87 228 -93 399 -6 173 13 286 72 426 51 120 54
146 21 178 l-25 26 -781 0 -781 0 -24 -25z"></path>
<path d="M455 1515 c-17 -16 -25 -35 -25 -57 1 -106 145 -116 166 -12 4 24 0
37 -21 62 -34 41 -84 44 -120 7z"></path>
<path d="M965 1515 c-35 -34 -33 -78 5 -117 26 -25 36 -29 63 -24 36 7 77 47
77 77 0 28 -26 75 -45 83 -35 13 -76 6 -100 -19z"></path>
<path d="M4052 1533 c-17 -6 -42 -57 -42 -83 0 -31 53 -80 85 -80 38 0 85 50
85 90 0 58 -68 97 -128 73z"></path>
<path d="M4545 1508 c-21 -25 -25 -38 -21 -62 8 -39 31 -63 66 -71 80 -18 134
82 75 140 -36 37 -86 34 -120 -7z"></path>
<path d="M202 1180 c-46 -43 -37 -107 19 -139 51 -29 119 14 119 76 0 70 -87
110 -138 63z"></path>
<path d="M714 1176 c-21 -18 -28 -32 -28 -61 0 -29 7 -43 28 -61 31 -28 56
-30 95 -9 49 25 57 90 16 130 -31 32 -75 32 -111 1z"></path>
<path d="M4295 1175 c-41 -40 -33 -105 16 -130 39 -21 64 -19 95 9 21 18 28
32 28 61 0 74 -88 112 -139 60z"></path>
<path d="M4805 1175 c-47 -46 -24 -125 42 -141 53 -14 113 46 99 99 -16 66
-95 89 -141 42z"></path>
<path d="M455 835 c-52 -51 -16 -145 54 -145 46 0 85 39 85 85 0 74 -88 112
-139 60z"></path>
<path d="M985 848 c-52 -30 -61 -94 -19 -133 37 -34 78 -33 115 4 38 38 38 74
0 112 -31 30 -63 36 -96 17z"></path>
<path d="M4039 831 c-17 -18 -29 -40 -29 -56 0 -37 50 -85 88 -85 60 0 105 84
69 131 -35 46 -88 50 -128 10z"></path>
<path d="M4554 836 c-58 -49 -20 -146 57 -146 43 0 79 39 79 85 0 74 -80 110
-136 61z"></path>
<path d="M199 491 c-40 -40 -36 -93 10 -128 48 -37 131 6 131 67 0 40 -47 90
-85 90 -16 0 -38 -12 -56 -29z"></path>
<path d="M716 498 c-40 -35 -43 -78 -11 -116 65 -77 175 -3 139 93 -8 19 -55
45 -83 45 -11 0 -31 -10 -45 -22z"></path>
<path d="M1242 510 c-27 -11 -51 -62 -44 -96 6 -32 47 -64 82 -64 35 0 76 32
82 64 7 36 -17 85 -47 96 -31 12 -42 12 -73 0z"></path>
<path d="M3802 510 c-27 -11 -51 -62 -44 -96 6 -32 47 -64 82 -64 35 0 76 32
82 64 7 36 -17 85 -47 96 -31 12 -42 12 -73 0z"></path>
<path d="M4315 508 c-78 -42 -49 -158 39 -158 47 0 90 50 82 94 -11 59 -72 91
-121 64z"></path>
<path d="M4811 494 c-24 -20 -31 -34 -31 -60 0 -89 116 -116 158 -37 19 35 14
63 -17 94 -36 36 -70 37 -110 3z"></path>
<path d="M475 168 c-77 -45 -49 -158 39 -158 47 0 91 50 82 94 -4 17 -14 39
-24 48 -23 23 -72 31 -97 16z"></path>
<path d="M970 152 c-70 -71 0 -172 95 -136 19 8 45 55 45 83 0 30 -41 70 -77
77 -27 5 -37 1 -63 -24z"></path>
<path d="M1500 167 c-79 -40 -53 -157 35 -157 73 0 110 80 63 134 -28 31 -65
40 -98 23z"></path>
<path d="M2010 167 c-14 -7 -31 -25 -38 -41 -40 -82 68 -156 133 -91 42 41 31
105 -22 133 -27 15 -42 15 -73 -1z"></path>
<path d="M2518 164 c-46 -24 -53 -90 -15 -131 46 -51 137 -15 137 54 0 45 -9
62 -41 78 -35 18 -47 18 -81 -1z"></path>
<path d="M3035 168 c-77 -45 -49 -158 39 -158 47 0 91 50 82 94 -4 17 -14 39
-24 48 -23 23 -72 31 -97 16z"></path>
<path d="M3530 152 c-70 -71 0 -172 95 -136 19 8 45 55 45 83 0 30 -41 70 -77
77 -27 5 -37 1 -63 -24z"></path>
<path d="M4060 167 c-79 -40 -53 -157 35 -157 73 0 110 80 63 134 -28 31 -65
40 -98 23z"></path>
<path d="M4570 167 c-14 -7 -31 -25 -38 -41 -40 -82 68 -156 133 -91 42 41 31
105 -22 133 -27 15 -42 15 -73 -1z"></path>
</g>
</svg>