<svg version="1.0" xmlns="http://www.w3.org/2000/svg" width="85" height="85" viewBox="0 0 512.000000 512.000000" preserveAspectRatio="xMidYMid meet"
 style="fill: #75846e; color: #75846e"
>

<g transform="translate(0.000000,512.000000) scale(0.100000,-0.100000)" stroke="none">
<path d="M2485 4951 c-92 -24 -173 -90 -215 -176 -25 -49 -25 -55 -28 -332
l-3 -283 -175 0 c-172 0 -175 0 -199 -25 l-25 -24 0 -271 0 -271 25 -24 c20
-21 34 -25 80 -25 l55 0 0 -79 0 -78 -83 -5 c-133 -9 -219 -61 -278 -170 l-34
-63 -3 -1042 -2 -1043 80 0 80 0 0 760 0 760 800 0 800 0 0 -400 0 -400 80 0
81 0 -3 683 -3 682 -34 63 c-59 109 -145 161 -278 170 l-83 5 0 78 0 79 55 0
c46 0 60 4 80 25 l25 24 0 271 0 271 -25 24 c-24 25 -27 25 -199 25 l-175 0
-3 283 -3 282 -34 63 c-57 105 -144 160 -260 167 -36 2 -79 1 -96 -4z m163
-178 c14 -10 35 -32 46 -47 20 -26 21 -43 24 -297 l3 -269 -161 0 -160 0 0
254 c0 156 4 266 11 283 14 37 47 72 84 89 40 19 119 12 153 -13z m472 -933
l0 -160 -560 0 -560 0 0 160 0 160 560 0 560 0 0 -160z m-160 -400 l0 -80
-400 0 -400 0 0 80 0 80 400 0 400 0 0 -80z m304 -254 c18 -8 46 -31 62 -52
l29 -37 3 -189 3 -188 -800 0 -801 0 0 174 c0 181 6 214 43 255 47 51 34 50
755 51 553 0 679 -2 706 -14z"></path>
<path d="M3040 2320 l0 -80 80 0 80 0 0 80 0 80 -80 0 -80 0 0 -80z"></path>
<path d="M2494 2283 c-93 -102 -245 -333 -295 -451 -29 -67 -34 -88 -34 -163
0 -78 3 -91 37 -161 45 -91 103 -147 196 -191 61 -29 76 -32 162 -32 86 0 101
3 162 32 93 44 151 100 196 191 34 70 37 83 37 161 0 75 -5 96 -34 163 -50
118 -202 349 -295 451 -46 51 -86 51 -132 0z m153 -295 c139 -210 168 -285
142 -376 -17 -61 -96 -142 -155 -160 -94 -28 -169 -8 -240 63 -84 84 -94 165
-33 288 30 62 189 307 199 307 3 0 42 -55 87 -122z"></path>
<path d="M3510 1634 c-217 -40 -237 -45 -258 -70 -20 -23 -23 -34 -17 -72 4
-24 9 -50 11 -57 4 -8 -34 -19 -123 -34 -168 -29 -178 -38 -168 -136 4 -38 8
-86 9 -105 l1 -34 -1055 -227 c-580 -125 -1067 -230 -1083 -234 -15 -4 -49
-27 -76 -51 -63 -57 -85 -110 -79 -198 7 -120 93 -211 209 -222 39 -4 347 37
1119 150 586 86 1070 156 1076 156 7 0 19 -38 28 -87 18 -100 41 -133 90 -133
17 0 78 9 136 20 58 11 108 20 111 20 4 0 10 -20 13 -44 9 -61 39 -96 80 -96
18 0 142 20 277 44 208 38 246 48 261 66 23 29 22 46 -11 225 -15 83 -27 151
-26 153 1 1 114 23 251 48 155 28 268 54 300 68 153 70 224 264 153 417 -32
68 -83 121 -152 155 -84 43 -138 42 -417 -10 -134 -25 -246 -44 -248 -42 -2 2
-17 78 -33 168 -25 143 -32 166 -55 186 -33 29 -43 28 -324 -24z m214 -151
c10 -49 185 -1027 188 -1053 3 -24 1 -25 -151 -52 -85 -15 -155 -27 -157 -25
-6 7 -195 1080 -192 1089 3 7 69 24 149 39 79 14 147 27 151 28 3 0 9 -11 12
-26z m-377 -610 c38 -214 69 -390 67 -392 -4 -5 -147 -31 -151 -27 -4 4 -143
762 -143 778 0 7 87 25 131 27 l26 1 70 -387z m1167 343 c77 -32 113 -129 78
-208 -33 -76 -52 -84 -333 -134 -138 -25 -252 -44 -254 -42 -7 8 -54 302 -49
307 8 9 442 88 487 90 21 0 53 -5 71 -13z m-1482 -401 c15 -82 26 -150 24
-152 -3 -3 -49 -10 -1205 -178 -508 -74 -935 -135 -948 -135 -36 0 -73 42 -73
83 0 70 1 70 405 157 204 44 681 147 1060 229 380 82 694 148 700 147 5 -2 22
-70 37 -151z"></path>
</g>
</svg>