<svg id="Layer_1" data-name="Layer 1" xmlns="http://www.w3.org/2000/svg" viewBox="0 0 159.91 40.02"><defs><style>.cls-1{fill:#44533c;}</style></defs><path class="cls-1" d="M54.61,34.3a10.6,10.6,0,0,1-2.85-.38,8.61,8.61,0,0,1-2.47-1.16,3.34,3.34,0,0,1-.38-.37,1.39,1.39,0,0,1-.28-.43,9.74,9.74,0,0,1-.39-2.16,22.88,22.88,0,0,1-.07-2.46.36.36,0,0,1,.2-.35,1.09,1.09,0,0,1,.91,0,.51.51,0,0,1,.22.33,9.51,9.51,0,0,0,2.24,4.1,4.59,4.59,0,0,0,3.33,1.47,3.52,3.52,0,0,0,2-.53A3.47,3.47,0,0,0,58.25,31a4,4,0,0,0,.42-1.82,4.21,4.21,0,0,0-.43-2,4.62,4.62,0,0,0-1.32-1.46,20.58,20.58,0,0,0-2.2-1.38c-1-.56-1.89-1.15-2.8-1.77a8.38,8.38,0,0,1-2.24-2.2,5.43,5.43,0,0,1-.88-3.17,6.08,6.08,0,0,1,1-3.45,6.71,6.71,0,0,1,2.78-2.32,9.61,9.61,0,0,1,4.13-.84,9.8,9.8,0,0,1,2.42.28,11.18,11.18,0,0,1,1.78.56,1.4,1.4,0,0,1,.58.35,1.45,1.45,0,0,1,.3.66,15.46,15.46,0,0,1,.37,1.75,14.67,14.67,0,0,1,.15,2.14q0,.42-.63.42a1.32,1.32,0,0,1-.56-.14.69.69,0,0,1-.35-.39A7,7,0,0,0,59,13.09,3.77,3.77,0,0,0,56.33,12a4.23,4.23,0,0,0-1.86.37,2.8,2.8,0,0,0-1.22,1.12,3.64,3.64,0,0,0-.46,1.94,2.63,2.63,0,0,0,.62,1.68,7.43,7.43,0,0,0,1.71,1.51l2.47,1.61a18.37,18.37,0,0,1,2.82,2,7.32,7.32,0,0,1,1.73,2.21,6.44,6.44,0,0,1,.59,2.85,7,7,0,0,1-1,3.87,6.2,6.2,0,0,1-2.84,2.34A10.57,10.57,0,0,1,54.61,34.3Z" transform="translate(-1 -1)"/><path class="cls-1" d="M65.39,33.88c-.49,0-.73-.15-.73-.45a.44.44,0,0,1,.22-.41c.16-.08.35-.17.58-.26a7.1,7.1,0,0,0,1-.4,1,1,0,0,0,.44-1v-17a4.21,4.21,0,0,0-.29-1.71,1.54,1.54,0,0,0-1.18-.81c-.23-.05-.35-.22-.35-.52s.11-.45.32-.49a14.06,14.06,0,0,0,1.82-.49c.6-.21,1.18-.42,1.71-.63s1-.38,1.33-.49a1.43,1.43,0,0,1,.42-.11.28.28,0,0,1,.25.11.55.55,0,0,1,.07.28,10.26,10.26,0,0,1-.11,1.1c-.07.52-.11,1.21-.14,2.05l0,12.56q0,.39.24.39a.93.93,0,0,0,.37-.11,1.54,1.54,0,0,0,.44-.31,31.76,31.76,0,0,0,2.33-2.24,19.76,19.76,0,0,0,1.34-1.58,2.17,2.17,0,0,0,.25-.35.64.64,0,0,0,.07-.24c0-.12-.1-.23-.28-.34a2.28,2.28,0,0,0-.77-.22q-.42-.11-.42-.42a.35.35,0,0,1,.24-.35,1.36,1.36,0,0,1,.53-.11H76.8c.4,0,.9,0,1.49-.07L80,19.09,81.25,19q.42,0,.42.39a.53.53,0,0,1-.23.42,1.93,1.93,0,0,1-.61.28,6.61,6.61,0,0,0-1.35.47c-.48.22-1,.47-1.45.75a9.12,9.12,0,0,0-1.16.77c-.46.35-1,.73-1.45,1.14S74.46,24,74,24.4a.48.48,0,0,0-.18.35.25.25,0,0,0,.06.17l.12.18c.58.72,1.16,1.44,1.73,2.17s1.13,1.4,1.66,2L78.87,31a7.83,7.83,0,0,0,1.42,1.1,6.73,6.73,0,0,0,1.34.68l.69.26c.22.09.33.22.33.41s-.25.45-.74.45c-1.26,0-2.52,0-3.79-.05s-2.5,0-3.66,0c-.45,0-.67-.14-.67-.42A.51.51,0,0,1,74,33a1.55,1.55,0,0,1,.5-.26,1.4,1.4,0,0,0,.49-.26.61.61,0,0,0,.21-.37.56.56,0,0,0-.1-.3l-.28-.4-3.64-4.69c-.1-.12-.18-.17-.25-.17s-.17.11-.17.28,0,.67,0,1v2.34c0,.42,0,.83,0,1.23a1.24,1.24,0,0,0,.28.91,2.08,2.08,0,0,0,.8.45c.19.07.36.15.53.23a.41.41,0,0,1,.24.4.4.4,0,0,1-.24.37,1.09,1.09,0,0,1-.46.12c-.44,0-.83,0-1.15-.05l-1-.09q-.45,0-1.08,0c-.4,0-.76,0-1.09,0l-1,.09C66.27,33.86,65.86,33.88,65.39,33.88Z" transform="translate(-1 -1)"/><path class="cls-1" d="M83.7,33.88a.81.81,0,0,1-.46-.12.39.39,0,0,1-.17-.33.46.46,0,0,1,.21-.42,1.28,1.28,0,0,1,.49-.21A4.24,4.24,0,0,0,85,32.34a.93.93,0,0,0,.36-.84V23.91A3.14,3.14,0,0,0,85,22.23a1.59,1.59,0,0,0-1.19-.7.46.46,0,0,1-.28-.2.61.61,0,0,1-.1-.36c0-.33.13-.51.38-.53a12.14,12.14,0,0,0,2.93-1l1.9-1a2,2,0,0,1,.63-.25c.26,0,.39.12.39.35s-.07.78-.14,1.35-.14,1.18-.19,1.82-.09,1.24-.09,1.8v7.88a.94.94,0,0,0,.38.8,4.29,4.29,0,0,0,1.23.53,3.77,3.77,0,0,1,.49.22.45.45,0,0,1,.21.41q0,.42-.6.42c-.44,0-.87,0-1.27,0l-1.19-.07c-.39,0-.79,0-1.21,0s-.78,0-1.16,0L85,33.83C84.59,33.86,84.16,33.88,83.7,33.88Zm3.5-17.64a2.39,2.39,0,0,1-2.42-2.38,2.43,2.43,0,0,1,.7-1.78,2.33,2.33,0,0,1,1.72-.7,2.37,2.37,0,0,1,1.75.7,2.43,2.43,0,0,1,.7,1.78,2.33,2.33,0,0,1-.7,1.68A2.37,2.37,0,0,1,87.2,16.24Z" transform="translate(-1 -1)"/><path class="cls-1" d="M93.53,33.88a1,1,0,0,1-.49-.12.37.37,0,0,1-.21-.33.46.46,0,0,1,.23-.42,2.1,2.1,0,0,1,.58-.25,4.09,4.09,0,0,0,1-.38,1,1,0,0,0,.44-1V23.59a3.76,3.76,0,0,0-.23-1.38,1.23,1.23,0,0,0-1-.75.82.82,0,0,1-.25-.2.6.6,0,0,1-.1-.4c0-.3.1-.48.31-.52a17.15,17.15,0,0,0,2.44-.76,14.93,14.93,0,0,0,2.11-1,1.67,1.67,0,0,0,.28-.18.48.48,0,0,1,.28-.1c.12,0,.2,0,.23.12a.75.75,0,0,1,0,.26c0,.16,0,.47-.08.91A8.76,8.76,0,0,0,99,20.76a1.46,1.46,0,0,0,0,.29c0,.11,0,.17,0,.2a9.91,9.91,0,0,1,2.47-1.75,6.41,6.41,0,0,1,2.88-.63,3.85,3.85,0,0,1,3,1.36,5.26,5.26,0,0,1,1.2,3.61v7.63a.92.92,0,0,0,.42.91,7.82,7.82,0,0,0,1,.38,3.16,3.16,0,0,1,.52.26.49.49,0,0,1,.25.44.35.35,0,0,1-.23.32,1,1,0,0,1-.44.1c-.46,0-.87,0-1.22-.05l-1-.09q-.51,0-1.14,0c-.4,0-.77,0-1.12,0l-1.07.09c-.36,0-.78.05-1.24.05a.87.87,0,0,1-.39-.1.34.34,0,0,1-.21-.32.52.52,0,0,1,.21-.44,2.27,2.27,0,0,1,.49-.26,6.89,6.89,0,0,0,.93-.38.93.93,0,0,0,.4-.91V24.36a3.31,3.31,0,0,0-.68-2.2,2.29,2.29,0,0,0-1.84-.81,4.3,4.3,0,0,0-1.64.28,5.73,5.73,0,0,0-1.37.81.7.7,0,0,0-.21.29,1.41,1.41,0,0,0-.07.41v8.33a1,1,0,0,0,.41.92,3.34,3.34,0,0,0,.92.37c.49.16.74.39.74.67a.38.38,0,0,1-.18.33.77.77,0,0,1-.45.12c-.47,0-.88,0-1.23-.05l-1-.09c-.33,0-.7,0-1.12,0s-.77,0-1.12,0l-1.09.09C94.42,33.86,94,33.88,93.53,33.88Z" transform="translate(-1 -1)"/><path class="cls-1" d="M112.89,33.88a1,1,0,0,1-.49-.12.37.37,0,0,1-.21-.33.47.47,0,0,1,.19-.42,1.19,1.19,0,0,1,.51-.21,3.43,3.43,0,0,0,1.2-.56,1.2,1.2,0,0,0,.3-.91V21.42c-.23,0-.5,0-.8,0l-1,0c-.11,0-.23-.14-.33-.35a1.23,1.23,0,0,1-.16-.56.2.2,0,0,1,.11-.17l.17-.11,1-.45,1-.46a13,13,0,0,1,.93-4.86,9.13,9.13,0,0,1,2.15-3.14,8.17,8.17,0,0,1,2.75-1.68,8.45,8.45,0,0,1,2.71-.5,6.36,6.36,0,0,1,3.27.64,2.1,2.1,0,0,1,1,1.88,1.88,1.88,0,0,1-.35,1.2,1.14,1.14,0,0,1-1,.44.94.94,0,0,1-.61-.26,7.3,7.3,0,0,1-.65-.68,10.75,10.75,0,0,0-1.31-1.12,3.07,3.07,0,0,0-1.91-.56,2.68,2.68,0,0,0-2.33,1.29,7.46,7.46,0,0,0-.85,4v3a.35.35,0,0,0,.14.33.63.63,0,0,0,.35.09h4.09a.48.48,0,0,1,.39.16.55.55,0,0,1,.14.37,3.57,3.57,0,0,1-.07.61,1.69,1.69,0,0,1-.21.54c-.1.19-.19.28-.28.28h-3.5a1.48,1.48,0,0,0-.84.16.62.62,0,0,0-.21.54v9a1.54,1.54,0,0,0,.42,1.21,4.19,4.19,0,0,0,1.85.61c.49.09.74.3.74.63a.42.42,0,0,1-.18.35.71.71,0,0,1-.45.14c-.7,0-1.44,0-2.21-.09s-1.46-.08-2.06-.08c-.4,0-.77,0-1.12,0l-1.11.09C113.78,33.86,113.35,33.88,112.89,33.88Z" transform="translate(-1 -1)"/><path class="cls-1" d="M127.2,34.27a3.05,3.05,0,0,1-1.59-.46,3.62,3.62,0,0,1-1.21-1.19,2.84,2.84,0,0,1-.45-1.5,2.73,2.73,0,0,1,.7-1.95,5.9,5.9,0,0,1,2.1-1.34l3.25-1.4a2,2,0,0,0,.86-.53A1.88,1.88,0,0,0,131,25l.07-2.06a2.42,2.42,0,0,0-.41-1.58,1.5,1.5,0,0,0-1.31-.59,2.67,2.67,0,0,0-.94.17,2,2,0,0,0-.77.46.71.71,0,0,0-.2.36,2.28,2.28,0,0,0,0,.44c0,.12,0,.26,0,.44s0,.33,0,.47-.18.32-.53.53a7.74,7.74,0,0,1-1.19.56,3.37,3.37,0,0,1-1.12.24.47.47,0,0,1-.38-.17.63.63,0,0,1-.14-.42,2.05,2.05,0,0,1,.37-1.14,5.24,5.24,0,0,1,1.17-1.24,12.06,12.06,0,0,1,1.92-1.32,13.52,13.52,0,0,1,2-.92,5.15,5.15,0,0,1,1.73-.35A3.48,3.48,0,0,1,134,20a4,4,0,0,1,1,2.89l-.18,7.49a2.21,2.21,0,0,0,.3,1.29,1,1,0,0,0,.82.53,1.68,1.68,0,0,0,1.19-.42.38.38,0,0,1,.25-.14.4.4,0,0,1,.29.12.38.38,0,0,1,.13.3,1.55,1.55,0,0,1-.56.94,4.66,4.66,0,0,1-1.35,1,3.39,3.39,0,0,1-1.42.34,3.45,3.45,0,0,1-3-1.93h-.1a9.28,9.28,0,0,1-2.12,1.47A4.8,4.8,0,0,1,127.2,34.27Zm1.93-2.1A2.17,2.17,0,0,0,130,32a1.72,1.72,0,0,0,.59-.44,1.42,1.42,0,0,0,.23-.42,2.63,2.63,0,0,0,.12-.7l.07-2.24a.67.67,0,0,0-.07-.47.31.31,0,0,0-.24-.12h-.21a1,1,0,0,0-.32.13,5.22,5.22,0,0,0-1.85,1.12,2.12,2.12,0,0,0-.56,1.54,1.7,1.7,0,0,0,.45,1.34A1.44,1.44,0,0,0,129.13,32.17Z" transform="translate(-1 -1)"/><path class="cls-1" d="M139.1,33.88a.77.77,0,0,1-.45-.12.38.38,0,0,1-.18-.33.46.46,0,0,1,.21-.42,1.35,1.35,0,0,1,.49-.21,4.24,4.24,0,0,0,1.21-.46.92.92,0,0,0,.37-.84V23.91a3.24,3.24,0,0,0-.35-1.68,1.61,1.61,0,0,0-1.19-.7.44.44,0,0,1-.28-.2.61.61,0,0,1-.11-.36c0-.33.13-.51.39-.53a12.06,12.06,0,0,0,2.92-1l1.91-1a1.84,1.84,0,0,1,.63-.25c.25,0,.38.12.38.35s-.07.78-.14,1.35-.13,1.18-.19,1.82-.09,1.24-.09,1.8v7.88a.93.93,0,0,0,.39.8,4.08,4.08,0,0,0,1.22.53,3.24,3.24,0,0,1,.49.22.45.45,0,0,1,.21.41c0,.28-.2.42-.59.42s-.87,0-1.28,0l-1.19-.07c-.38,0-.79,0-1.21,0s-.78,0-1.15,0-.76,0-1.14.09S139.57,33.88,139.1,33.88Zm3.5-17.64a2.39,2.39,0,0,1-2.41-2.38,2.39,2.39,0,0,1,.7-1.78,2.29,2.29,0,0,1,1.71-.7,2.39,2.39,0,0,1,2.45,2.48,2.29,2.29,0,0,1-.7,1.68A2.37,2.37,0,0,1,142.6,16.24Z" transform="translate(-1 -1)"/><path class="cls-1" d="M149,33.88a1,1,0,0,1-.49-.12.37.37,0,0,1-.21-.33.45.45,0,0,1,.22-.42,2.41,2.41,0,0,1,.58-.25,2.33,2.33,0,0,0,1-.51,1.1,1.1,0,0,0,.3-.82V23.56a3.34,3.34,0,0,0-.23-1.35,1.28,1.28,0,0,0-1-.72,1.54,1.54,0,0,1-.28-.19.48.48,0,0,1-.14-.37.51.51,0,0,1,.39-.56c.7-.19,1.45-.44,2.27-.75a19.33,19.33,0,0,0,2.07-.93l.38-.21a.79.79,0,0,1,.32-.1c.18,0,.28.11.28.35,0,.09,0,.3,0,.63s0,.68,0,1.06,0,.73,0,1c0,.14,0,.21.11.21a9.57,9.57,0,0,1,1.26-1.37,7.4,7.4,0,0,1,1.48-1.05,3.39,3.39,0,0,1,1.6-.42,2.35,2.35,0,0,1,1.52.42,1.31,1.31,0,0,1,.51,1.05,2.41,2.41,0,0,1-.27,1.05,3.15,3.15,0,0,1-.66,1,1.25,1.25,0,0,1-.89.41,1.71,1.71,0,0,1-.6-.13,5.89,5.89,0,0,1-.63-.29l-.65-.28a1.45,1.45,0,0,0-.61-.14,2.24,2.24,0,0,0-1.57.64,3.46,3.46,0,0,0-.7,2.54v6.16a1.12,1.12,0,0,0,.45,1,4.91,4.91,0,0,0,1.4.62,2.28,2.28,0,0,1,.58.22.45.45,0,0,1,.19.41q0,.45-.63.45-1,0-2-.09c-.61,0-1.23-.08-1.83-.08q-.6,0-1.14,0l-1.1.09C149.89,33.86,149.47,33.88,149,33.88Z" transform="translate(-1 -1)"/><path class="cls-1" d="M24.24,35.55c-1.57,3.13,10.53,3.91,10.53-.39V33.21s1.56-1.56,1.56-2.34-1.17-.78-.78-1.17,1.17.39,1.17-.39c0,0-.39-1.95,0-2.34s1.56,0,1.56-1.56a13.16,13.16,0,0,0-1.56-4.68C36.33,20,42.18,15.65,41,11,40.38,8.43,24.63-6.59,7.46,5.9-3,13.48-2.69,37.5,22.67,41c0,0,2-23-11.7-26.54,0,0-1.17,14.83,7.8,23,0,0-13.26-8.58-9-23.8,1.38-4.88,8-4,10.53-2.73C23.46,12.53,29.63,24.77,24.24,35.55Z" transform="translate(-1 -1)"/></svg>